<!-- <svg xmlns="http://www.w3.org/2000/svg" xmlns:xlink="http://www.w3.org/1999/xlink" aria-hidden="true" style="position: absolute; width: 0; height: 0; overflow: hidden;" version="1.1">
  <defs>
    <symbol id="full" viewBox="0 0 376 178">
      <g class="signet" style="fill: currentColor">
        <path class="cls-2" d="M128,56.1244,89,33.6077a12,12,0,0,0-12,0L38,56.1243a12.0339,12.0339,0,0,0-6,10.3924V111.55a12.0333,12.0333,0,0,0,6,10.3923L77,144.459a12,12,0,0,0,12,0l39-22.5167a12.0333,12.0333,0,0,0,6-10.3923V66.5167A12.0336,12.0336,0,0,0,128,56.1244ZM126,111.55a4,4,0,0,1-2,3.4641L85,137.5308a4,4,0,0,1-4,0L42,115.0141a4,4,0,0,1-2-3.4641V66.5167a4,4,0,0,1,2-3.4641L81,40.5359a4,4,0,0,1,4,0l39,22.5167a4,4,0,0,1,2,3.4641Z"/>
        <path class="cls-2" d="M106.0216,102.0713h-2.866a3.9993,3.9993,0,0,0-1.9246.4935L83.95,112.05,64,100.5315V77.554L83.95,66.0354,101.239,75.49a4.0007,4.0007,0,0,0,1.9192.4905h2.8633a2,2,0,0,0,2-2V71.2691a2,2,0,0,0-1.04-1.7547L87.793,59.0188a8.0391,8.0391,0,0,0-7.8428.09L60,70.6262A8.0245,8.0245,0,0,0,56,77.5549v22.976a8,8,0,0,0,4,6.9283l19.95,11.5186a8.0429,8.0429,0,0,0,7.8433.0879l19.19-10.5312a2,2,0,0,0,1.0377-1.7533v-2.71A2,2,0,0,0,106.0216,102.0713Z"/>
      </g>
      <g class="text" style="fill: currentColor">
        <path class="cls-2" d="M200.7446,65.4285a15.0166,15.0166,0,0,0-15,14.9995V97.7054a15,15,0,0,0,30,0V80.428A15.0166,15.0166,0,0,0,200.7446,65.4285Zm7,32.2769a7,7,0,0,1-14,0V80.428a7,7,0,0,1,14,0Z"/>
        <path class="cls-2" d="M164.0789,73.4878a7.01,7.01,0,0,1,7.868,6.0752.9894.9894,0,0,0,.9843.865h6.0305a1.0108,1.0108,0,0,0,.9987-1.0971,15.0182,15.0182,0,0,0-15.7163-13.8837A15.2881,15.2881,0,0,0,150,80.8635V97.27a15.2881,15.2881,0,0,0,14.2441,15.4163A15.0183,15.0183,0,0,0,179.96,98.8025a1.0107,1.0107,0,0,0-.9987-1.0971h-6.0305a.9894.9894,0,0,0-.9843.865,7.01,7.01,0,0,1-7.868,6.0757A7.1643,7.1643,0,0,1,158,97.4612V80.6724A7.1639,7.1639,0,0,1,164.0789,73.4878Z"/>
        <path class="cls-2" d="M246.9221,92.9944a12.1584,12.1584,0,0,0,7.1843-11.0771V78.2161A12.1494,12.1494,0,0,0,241.957,66.0667H225a1,1,0,0,0-1,1v44a1,1,0,0,0,1,1h6a1,1,0,0,0,1-1v-17h6.6216l7.9153,17.4138a1,1,0,0,0,.91.5862h6.591a1,1,0,0,0,.91-1.4138Zm-.8157-11.0771a4.1538,4.1538,0,0,1-4.1489,4.1494h-9.8511v-12h9.8511a4.1538,4.1538,0,0,1,4.1489,4.1494Z"/>
        <path class="cls-2" d="M289,66.0667H263a1,1,0,0,0-1,1v44a1,1,0,0,0,1,1h26a1,1,0,0,0,1-1v-6a1,1,0,0,0-1-1H270v-12h13a1,1,0,0,0,1-1v-6a1,1,0,0,0-1-1H270v-10h19a1,1,0,0,0,1-1v-6A1,1,0,0,0,289,66.0667Z"/>
        <path class="cls-2" d="M327,66.0667h-6a1,1,0,0,0-1,1V89.7142a7.0066,7.0066,0,1,1-14,0V67.0667a1,1,0,0,0-1-1h-6a1,1,0,0,0-1,1V89.7142a15.0031,15.0031,0,1,0,30,0V67.0667A1,1,0,0,0,327,66.0667Z"/>
        <rect class="cls-2" x="336" y="66.0667" width="8" height="38" rx="1"/>
      </g>
    </symbol>
    <symbol id="signet" viewBox="0 0 160 160">
      <g style="fill: currentColor">
        <path class="cls-1" d="M125,47.091,86,24.5743a12,12,0,0,0-12,0L35,47.091a12.0336,12.0336,0,0,0-6,10.3923v45.0334a12.0335,12.0335,0,0,0,6,10.3923l39,22.5166a11.9993,11.9993,0,0,0,12,0l39-22.5166a12.0335,12.0335,0,0,0,6-10.3923V57.4833A12.0336,12.0336,0,0,0,125,47.091Zm-2,55.4257a4,4,0,0,1-2,3.464L82,128.4974a4,4,0,0,1-4,0L39,105.9807a4,4,0,0,1-2-3.464V57.4833a4,4,0,0,1,2-3.4641L78,31.5025a4,4,0,0,1,4,0l39,22.5167a4,4,0,0,1,2,3.4641Z"/>
        <path class="cls-1" d="M103.0216,93.0379h-2.866a4,4,0,0,0-1.9246.4935L80.95,103.0167,61,91.4981V68.5206L80.95,57.002l17.2894,9.455a4,4,0,0,0,1.9192.4905h2.8632a2,2,0,0,0,2-2V62.2357a2,2,0,0,0-1.04-1.7547L84.793,49.9854a8.0391,8.0391,0,0,0-7.8428.09L57,61.5929A8.0243,8.0243,0,0,0,53,68.5216v22.976a8,8,0,0,0,4,6.9283l19.95,11.5185a8.0422,8.0422,0,0,0,7.8433.0879l19.19-10.5311a2,2,0,0,0,1.0378-1.7534v-2.71A2,2,0,0,0,103.0216,93.0379Z"/>
      </g>
    </symbol>
  </defs>
</svg> -->

<?xml version="1.0" encoding="utf-8"?>
<svg version="1.0" xmlns="http://www.w3.org/2000/svg" width="1588.000000pt" height="1588.000000pt" viewBox="1052.198 564.106 415.779 367.771" preserveAspectRatio="none" xmlns:bx="https://boxy-svg.com"><defs><bx:export><bx:file format="svg" units="pt"/></bx:export></defs><g transform="translate(0.000000,1588.000000) scale(0.100000,-0.100000)" fill="#000000" stroke="none"><path d="M11656 14711 c-30 -33 -58 -132 -58 -204 1 -73 29 -150 77 -213 14 -18 25 -37 25 -43 0 -5 -23 -41 -51 -78 -66 -88 -159 -280 -197 -408 -71 -240 -95 -430 -95 -745 0 -316 24 -513 89 -745 23 -83 98 -287 114 -310 4 -5 24 -41 45 -80 20 -38 62 -104 93 -145 226 -305 554 -503 987 -595 203 -43 300 -50 673 -50 303 0 354 2 362 15 14 22 13 2455 -1 2540 -12 79 -66 242 -109 333 -17 37 -60 107 -96 157 -35 49 -64 91 -64 94 0 3 18 32 40 63 56 81 84 170 77 242 -6 53 -38 150 -60 179 -14 18 -51 15 -65 -5 -6 -10 -31 -46 -54 -80 -47 -67 -102 -116 -163 -144 -54 -25 -84 -24 -157 6 -105 43 -279 78 -443 90 -184 13 -453 -29 -580 -91 -49 -24 -57 -26 -87 -14 -18 8 -52 26 -74 42 -43 28 -124 114 -124 130 0 19 -53 78 -70 78 -9 0 -24 -8 -34 -19z m93 -181 c24 -28 63 -64 87 -81 24 -16 44 -34 44 -38 0 -4 -26 -28 -58 -52 l-57 -45 -24 28 c-33 41 -61 120 -61 176 0 78 11 80 69 12z m1732 18 c3 -87 -19 -157 -65 -213 l-31 -37 -68 52 c-37 28 -67 53 -67 55 0 3 16 11 35 19 19 8 65 46 102 84 38 38 74 69 81 70 7 1 12 -11 13 -30z m-676 -67 c123 -24 206 -51 307 -101 225 -112 406 -333 484 -589 50 -167 55 -226 52 -650 l-3 -385 -92 -36 c-126 -50 -192 -92 -278 -175 -150 -145 -225 -347 -225 -604 0 -231 69 -398 230 -562 52 -53 128 -119 169 -147 58 -41 70 -53 56 -58 -10 -4 -131 -4 -269 -1 -511 13 -853 104 -1149 306 -216 147 -387 361 -491 612 -104 253 -156 561 -156 934 0 437 70 755 223 1014 141 239 340 377 635 441 123 26 371 27 507 1z m845 -2541 c0 -528 -3 -720 -11 -720 -20 0 -114 58 -195 120 -140 107 -233 235 -280 385 -26 81 -29 103 -28 225 1 159 21 249 85 378 50 102 133 190 236 251 68 40 153 78 181 80 9 1 12 -149 12 -719z"/><path d="M11904 13920 c-78 -31 -138 -89 -180 -175 -34 -70 -36 -79 -32 -148 6 -89 34 -151 99 -217 155 -161 422 -116 524 87 26 51 30 69 30 143 0 73 -4 93 -28 142 -30 62 -103 134 -164 163 -58 28 -185 30 -249 5z m223 -91 c84 -35 136 -118 136 -215 0 -76 -27 -137 -80 -185 -54 -49 -99 -62 -190 -57 -68 5 -77 8 -120 45 -66 55 -92 111 -92 193 -1 188 169 296 346 219z"/><path d="M11968 13695 c-30 -17 -52 -71 -43 -108 18 -68 108 -95 159 -48 87 81 -11 212 -116 156z"/><path d="M13080 13931 c-77 -24 -147 -83 -196 -166 -27 -46 -29 -57 -29 -150 0 -92 2 -104 30 -154 70 -127 217 -198 353 -170 102 21 174 73 229 166 26 44 28 56 28 153 0 94 -3 110 -26 155 -58 110 -169 176 -292 174 -40 0 -83 -4 -97 -8z m215 -105 c24 -14 57 -43 74 -63 94 -114 53 -300 -82 -370 -52 -27 -154 -29 -209 -4 -181 82 -198 329 -30 433 73 45 173 47 247 4z"/><path d="M13115 13688 c-54 -48 -41 -129 26 -163 59 -31 129 16 129 87 0 82 -94 128 -155 76z"/><path d="M12470 13336 c0 -5 59 -101 94 -153 l28 -43 27 38 c57 82 101 149 101 155 0 4 -56 7 -125 7 -69 0 -125 -2 -125 -4z"/><path d="M11685 12383 c3 -16 21 -43 39 -62 63 -63 168 -47 208 31 11 21 17 42 13 48 -4 6 -58 10 -137 10 l-130 0 7 -27z"/><path d="M12220 12384 c0 -17 14 -40 39 -65 35 -35 44 -39 90 -39 46 0 55 4 91 40 25 25 40 49 40 65 l0 25 -130 0 -130 0 0 -26z"/><path d="M12750 12386 c0 -29 33 -72 70 -91 62 -32 143 -7 175 54 30 60 28 61 -115 61 l-130 0 0 -24z"/><path d="M12060 12004 c0 -17 14 -40 39 -65 35 -35 44 -39 90 -39 46 0 55 4 91 40 25 25 40 49 40 65 l0 25 -130 0 -130 0 0 -26z"/><path d="M12594 11998 c3 -20 20 -46 43 -65 30 -28 44 -33 84 -33 42 0 53 5 89 38 27 27 40 47 40 65 l0 27 -131 0 -131 0 6 -32z"/><path d="M12450 11619 c0 -50 70 -109 130 -109 61 0 130 57 130 106 l0 24 -130 0 c-125 0 -130 -1 -130 -21z"/><path d="M2343 14643 c-177 -203 -278 -420 -342 -733 -61 -304 -53 -750 19 -1015 121 -443 364 -766 781 -1037 141 -91 447 -238 498 -238 15 0 75 20 132 45 561 246 916 588 1094 1056 79 207 115 424 115 702 0 383 -54 654 -182 917 -88 178 -230 370 -275 370 -11 0 -43 -20 -69 -43 -133 -119 -322 -225 -482 -270 -70 -20 -101 -22 -332 -21 -250 0 -257 0 -345 27 -168 51 -346 152 -472 268 -24 22 -51 39 -62 39 -11 0 -44 -28 -78 -67z m129 -71 c117 -101 334 -215 493 -259 96 -27 109 -28 335 -28 225 0 239 1 335 28 113 31 110 29 227 85 76 36 245 148 286 189 23 23 39 15 91 -48 201 -240 314 -623 315 -1064 l1 -189 -25 -8 c-14 -3 -68 -16 -121 -27 -193 -40 -341 -133 -499 -314 -87 -99 -155 -224 -191 -347 -30 -107 -38 -326 -15 -441 18 -87 42 -164 59 -187 7 -9 5 -19 -9 -32 -24 -24 -217 -125 -352 -184 l-102 -46 -128 56 c-115 51 -287 143 -336 179 -18 14 -18 17 14 127 83 284 36 579 -132 827 -45 66 -172 190 -246 240 -111 75 -188 104 -387 147 l-40 9 -3 90 c-7 192 27 488 78 680 23 89 102 270 157 364 48 80 130 181 148 181 8 0 29 -13 47 -28z m-311 -1398 c276 -61 517 -286 604 -564 34 -111 50 -273 35 -382 -12 -98 -48 -218 -64 -218 -17 1 -81 52 -186 149 -200 185 -359 443 -435 710 -29 99 -66 301 -59 313 7 11 22 10 105 -8z m2383 7 c3 -4 -3 -59 -14 -122 -54 -313 -195 -601 -406 -828 -92 -99 -277 -253 -288 -240 -2 2 -15 45 -30 94 -54 183 -45 384 25 567 98 252 345 466 604 521 84 18 102 20 109 8z"/><path d="M2755 14200 c-62 -13 -146 -47 -196 -78 -62 -40 -147 -130 -192 -204 -58 -96 -72 -154 -72 -293 1 -112 3 -125 33 -199 73 -179 229 -313 408 -351 118 -25 272 -12 353 29 l30 16 73 -99 c98 -134 106 -135 188 -8 33 50 61 97 63 102 2 6 30 1 68 -12 135 -46 232 -54 354 -28 188 39 350 185 416 373 27 74 36 230 19 303 -47 198 -198 367 -385 430 -101 33 -251 33 -353 0 -70 -23 -159 -73 -211 -120 -13 -11 -28 -21 -32 -21 -5 0 -30 16 -55 36 -105 79 -225 122 -368 128 -55 3 -119 1 -141 -4z m206 -84 c114 -19 222 -72 290 -143 28 -29 57 -53 66 -53 8 0 40 26 72 58 39 41 80 71 136 98 l80 39 130 0 c120 0 135 -2 197 -28 213 -91 340 -346 282 -571 -49 -193 -208 -337 -405 -367 -66 -11 -89 -10 -165 5 -112 22 -189 63 -275 144 -37 34 -71 62 -76 62 -5 0 -41 -30 -79 -67 -86 -84 -169 -126 -279 -143 -165 -25 -314 26 -423 144 -100 108 -134 195 -134 339 1 113 23 190 79 273 98 143 197 197 408 223 6 0 49 -5 96 -13z m382 -911 l38 -33 -41 -66 c-23 -36 -45 -66 -50 -66 -8 0 -90 105 -90 116 0 10 84 83 95 83 6 0 27 -15 48 -34z"/><path d="M2740 13815 c-145 -66 -177 -260 -59 -360 43 -36 72 -46 134 -46 152 -2 253 142 198 283 -9 24 -25 54 -37 66 -52 59 -169 87 -236 57z"/><path d="M3698 13817 c-154 -58 -191 -257 -67 -362 44 -37 74 -47 140 -47 213 0 287 279 103 387 -54 31 -126 40 -176 22z"/><path d="M2312 12944 c-20 -14 -22 -24 -22 -98 0 -85 8 -106 43 -106 36 0 47 24 47 108 0 64 -4 82 -18 95 -23 21 -22 21 -50 1z"/><path d="M2517 12612 c-13 -14 -17 -38 -17 -91 0 -83 11 -111 43 -111 39 0 47 19 47 105 0 67 -3 85 -18 98 -24 22 -35 21 -55 -1z"/><path d="M4240 12952 c-25 -9 -30 -24 -30 -107 0 -86 8 -105 46 -105 29 0 34 16 34 115 0 70 -3 86 -17 93 -10 5 -25 7 -33 4z"/><path d="M4018 12619 c-15 -8 -18 -25 -18 -104 0 -85 2 -94 20 -100 11 -3 29 -3 40 0 18 6 20 15 20 99 0 110 -14 133 -62 105z"/><path d="M7950 14699 c-288 -34 -531 -173 -701 -400 -27 -37 -49 -69 -49 -72 0 -4 -14 -28 -30 -54 -35 -54 -94 -236 -110 -333 -5 -36 -10 -131 -10 -212 0 -82 -1 -148 -3 -148 -2 0 -32 12 -68 27 -55 23 -78 27 -169 27 -93 1 -109 -2 -136 -21 -79 -57 -120 -173 -110 -313 16 -231 107 -400 449 -842 31 -39 47 -70 51 -101 25 -166 178 -378 388 -539 40 -31 118 -85 173 -119 121 -77 399 -219 428 -219 29 0 288 127 404 199 136 84 240 164 340 262 137 135 208 247 244 386 12 51 29 87 50 112 129 151 330 447 390 575 57 122 83 240 76 346 -15 232 -118 312 -338 266 -37 -8 -85 -24 -108 -36 -31 -15 -42 -17 -46 -8 -2 7 -6 99 -8 203 -4 170 -7 199 -31 280 -82 273 -250 485 -491 619 -163 91 -400 137 -585 115z m272 -94 c189 -33 346 -115 486 -255 71 -70 90 -100 55 -85 -132 57 -144 59 -293 59 -191 1 -266 -23 -406 -128 -8 -7 -25 2 -54 27 -53 45 -90 63 -186 87 -139 36 -331 22 -442 -32 -24 -11 -46 -17 -50 -14 -6 6 129 143 183 185 42 33 135 83 206 111 148 57 337 74 501 45z m-420 -375 c74 -14 131 -47 188 -106 28 -30 58 -54 66 -54 9 0 41 26 72 59 42 43 72 64 112 79 81 29 232 45 310 33 227 -37 340 -144 340 -320 -1 -209 -240 -488 -544 -636 -193 -94 -287 -106 -444 -55 -51 16 -116 42 -145 56 -282 142 -519 411 -534 607 -21 255 231 402 579 337z m-642 -444 c0 -25 70 -149 127 -224 59 -77 190 -199 284 -263 83 -56 243 -134 328 -160 92 -27 210 -29 301 -5 205 54 486 246 626 427 51 66 124 196 124 222 0 9 4 17 9 17 17 0 21 -139 21 -775 0 -713 -4 -774 -57 -878 -117 -232 -333 -416 -715 -608 -75 -38 -143 -69 -151 -69 -32 0 -316 150 -449 236 -98 64 -240 185 -297 254 -64 77 -124 178 -153 260 l-23 65 -3 685 c-3 670 0 830 19 830 5 0 9 -6 9 -14z m-245 -348 c53 -13 104 -53 121 -94 11 -27 14 -117 14 -454 0 -262 -4 -420 -10 -420 -14 0 -112 133 -251 341 -37 55 -98 188 -119 259 -26 85 -31 208 -11 277 15 54 54 101 89 106 34 5 115 -2 167 -15z m2506 -15 c35 -33 51 -90 50 -187 0 -173 -62 -322 -236 -566 -112 -159 -165 -223 -170 -208 -3 8 -4 207 -3 444 3 427 3 429 26 461 31 43 99 74 185 82 89 10 115 5 148 -26z"/><path d="M7575 13957 c-41 -41 -47 -92 -16 -143 47 -77 173 -63 201 22 27 80 -15 144 -99 152 -47 4 -53 2 -86 -31z"/><path d="M8454 13951 c-68 -29 -86 -126 -35 -183 26 -29 36 -33 79 -33 40 0 56 5 76 24 72 68 35 187 -60 197 -21 2 -49 0 -60 -5z"/><path d="M8016 13648 c-36 -57 -32 -146 9 -191 32 -34 54 -25 80 30 23 47 22 91 -1 140 -24 47 -64 57 -88 21z"/><path d="M7416 12698 c15 -25 107 -128 114 -128 5 0 36 32 70 70 l62 70 -127 0 c-98 0 -125 -3 -119 -12z"/><path d="M7988 12663 c22 -27 51 -58 64 -71 l25 -22 55 58 c30 33 58 64 62 71 5 8 -27 11 -119 11 l-127 0 40 -47z"/><path d="M8500 12700 c0 -5 6 -13 13 -17 7 -4 32 -32 56 -60 24 -29 47 -53 51 -53 3 0 34 32 69 70 l62 70 -125 0 c-73 0 -126 -4 -126 -10z"/><path d="M7746 12350 c32 -38 61 -70 64 -70 6 0 60 56 109 113 l24 27 -127 0 -127 0 57 -70z"/><path d="M8240 12413 c0 -5 26 -37 58 -72 l59 -65 59 63 c32 35 61 67 62 72 2 5 -49 9 -117 9 -67 0 -121 -3 -121 -7z"/><path d="M7962 12082 c32 -44 104 -122 113 -122 10 0 125 124 125 134 0 3 -57 6 -126 6 -119 0 -124 -1 -112 -18z"/><path d="M2034 10262 c-18 -12 -23 -39 -11 -55 7 -9 35 -25 62 -36 127 -50 388 -192 434 -236 11 -11 1 -21 -60 -64 -401 -281 -621 -844 -595 -1526 16 -446 135 -794 369 -1077 46 -57 92 -109 101 -117 29 -24 17 -31 -59 -31 -90 0 -137 -17 -182 -66 -47 -52 -73 -129 -75 -227 -2 -129 33 -217 107 -269 l40 -28 1214 0 c1119 0 1216 1 1240 17 38 24 59 52 89 113 24 49 27 66 27 160 0 94 -3 111 -27 160 -63 127 -92 140 -307 140 l-160 0 -4 983 c-3 967 -3 983 -24 1063 -76 286 -234 530 -439 681 -35 26 -64 50 -64 54 0 17 163 114 300 180 80 39 156 76 170 82 35 18 36 70 2 75 -50 7 -327 -127 -479 -232 -87 -60 -100 -62 -165 -30 -52 26 -224 64 -342 75 -178 17 -320 0 -504 -58 l-82 -27 -28 25 c-64 58 -244 160 -411 234 -108 47 -119 50 -137 37z m1269 -313 c106 -21 204 -52 221 -69 7 -7 -5 -25 -35 -58 -140 -145 -259 -368 -330 -617 -16 -55 -32 -107 -35 -115 -3 -8 -25 50 -49 130 -80 269 -167 437 -312 606 -29 34 -53 64 -53 67 0 8 149 53 215 65 93 18 269 14 378 -9z m-622 -156 c145 -154 263 -388 328 -648 30 -124 61 -300 61 -352 0 -37 31 -67 59 -58 22 7 26 18 36 100 36 282 141 588 271 785 50 77 169 210 186 210 20 0 164 -109 220 -166 159 -162 256 -358 294 -594 24 -144 12 -313 -31 -457 -79 -264 -274 -498 -523 -626 -183 -94 -315 -122 -539 -115 -136 5 -157 9 -256 42 -277 92 -467 247 -612 501 -143 251 -167 574 -65 869 55 159 184 338 330 458 53 43 159 108 175 108 7 0 36 -26 66 -57z m-698 -1100 c9 -55 54 -186 89 -262 107 -228 320 -441 539 -540 370 -166 768 -139 1113 77 61 37 182 144 222 195 16 21 42 52 57 70 28 32 101 149 114 184 4 10 13 24 20 31 11 11 13 -15 13 -146 l0 -160 -64 -41 c-249 -157 -377 -405 -376 -731 1 -63 7 -145 14 -182 l13 -68 -624 0 -623 0 -76 72 c-41 40 -99 104 -127 143 -28 38 -54 72 -57 75 -3 3 -17 23 -31 45 -200 306 -289 761 -243 1227 7 64 18 68 27 11z m2167 -1113 l0 -460 -162 2 -163 3 -12 55 c-21 93 -26 200 -14 300 28 221 101 361 259 496 41 35 79 64 84 64 4 0 8 -207 8 -460z m248 -557 c-43 -85 -48 -108 -48 -201 1 -62 6 -112 16 -137 8 -22 18 -48 21 -57 5 -17 -52 -18 -1100 -18 l-1106 0 -30 37 c-75 91 -63 308 21 367 20 14 141 16 1126 16 607 0 1102 -3 1100 -7z m196 -18 c41 -38 58 -89 59 -180 1 -171 -96 -273 -170 -177 -74 94 -70 270 7 352 34 37 68 38 104 5z"/><path d="M2393 9321 c-59 -31 -121 -89 -148 -141 -23 -45 -35 -135 -25 -195 17 -106 103 -208 202 -241 75 -25 191 -16 251 19 181 107 219 334 81 487 -57 63 -123 93 -219 98 -74 3 -85 1 -142 -27z m209 -66 c52 -18 101 -63 129 -117 23 -45 26 -143 5 -192 -44 -105 -181 -163 -290 -121 -55 21 -118 86 -136 139 -20 62 -9 149 26 198 67 95 161 128 266 93z"/><path d="M2473 9140 c-36 -22 -63 -66 -63 -105 0 -58 61 -115 122 -115 43 0 107 55 108 93 0 14 -9 17 -60 17 l-60 0 0 65 c0 36 -3 65 -7 65 -5 0 -22 -9 -40 -20z"/><path d="M3591 9339 c-88 -27 -181 -121 -207 -208 -45 -154 30 -314 179 -381 55 -25 164 -26 230 -3 53 19 131 79 121 94 -3 5 0 8 8 7 7 -2 26 23 43 57 26 51 30 71 29 135 0 86 -21 141 -77 205 -56 65 -127 98 -217 101 -41 2 -90 -1 -109 -7z m160 -81 c52 -15 117 -73 140 -122 35 -78 18 -188 -38 -251 -43 -49 -95 -70 -168 -70 -81 1 -120 17 -172 73 -38 43 -53 86 -53 160 0 98 64 179 170 215 27 9 82 7 121 -5z"/><path d="M3628 9138 c-42 -24 -58 -54 -58 -106 1 -41 16 -66 57 -94 35 -22 65 -23 109 -2 32 15 64 57 64 83 0 6 -26 11 -57 13 l-58 3 -3 63 c-2 34 -6 62 -10 62 -4 0 -23 -10 -44 -22z"/><path d="M2990 8645 c0 -8 122 -196 125 -193 11 12 125 188 125 193 0 3 -56 5 -125 5 -69 0 -125 -2 -125 -5z"/><path d="M3931 7631 c-19 -12 -27 -111 -12 -140 13 -23 50 -28 69 -9 16 16 16 130 0 146 -14 14 -37 15 -57 3z"/><path d="M4017 7363 c-4 -3 -7 -37 -7 -73 0 -79 14 -100 55 -82 23 10 25 18 25 71 0 33 -3 66 -6 75 -6 16 -54 22 -67 9z"/><path d="M2532 6918 c-18 -18 -14 -46 7 -58 11 -5 84 -10 165 -10 118 0 147 3 160 16 19 18 19 20 6 45 -10 18 -23 19 -168 19 -110 0 -162 -4 -170 -12z"/><path d="M3652 6888 c-6 -6 -12 -20 -12 -29 0 -32 25 -40 120 -37 76 2 95 6 104 21 8 12 8 22 0 35 -9 14 -28 18 -105 20 -65 2 -98 -1 -107 -10z"/><path d="M3080 6750 c-8 -14 -8 -26 0 -40 10 -18 21 -20 145 -20 73 0 140 3 149 6 19 7 21 45 4 62 -8 8 -56 12 -150 12 -127 0 -138 -1 -148 -20z"/><path d="M7097 9878 c-175 -197 -290 -458 -348 -793 -20 -114 -23 -165 -24 -410 0 -254 2 -291 23 -395 62 -303 151 -512 312 -725 206 -275 478 -478 862 -644 l138 -60 102 43 c430 180 735 416 953 736 135 197 227 448 270 735 18 118 20 438 5 583 -42 384 -170 708 -368 930 -42 47 -72 72 -86 72 -11 -1 -46 -23 -76 -51 -132 -122 -321 -223 -495 -265 -104 -25 -117 -26 -339 -21 -216 4 -237 6 -319 31 -153 47 -272 112 -419 232 -50 41 -99 74 -109 74 -9 0 -46 -33 -82 -72z m161 -85 c31 -25 92 -69 134 -96 43 -27 75 -53 72 -58 -3 -5 -25 -9 -48 -9 -63 0 -200 -42 -281 -87 -260 -143 -331 -415 -183 -708 68 -135 213 -305 373 -434 176 -143 389 -256 570 -301 119 -30 283 -24 392 13 430 149 827 512 933 852 30 98 30 227 0 315 -25 73 -52 113 -123 182 -80 80 -287 168 -393 168 -63 0 -70 13 -22 40 55 30 119 74 186 128 30 23 60 42 67 42 25 0 137 -155 193 -267 81 -164 122 -285 151 -454 35 -195 52 -505 35 -610 l-6 -36 -80 -12 c-297 -42 -551 -232 -688 -515 -113 -236 -125 -493 -34 -767 6 -18 -134 -101 -281 -166 -147 -66 -159 -69 -203 -54 -52 18 -352 167 -380 189 l-24 19 28 109 c25 95 28 127 28 249 -1 161 -16 241 -67 362 -47 111 -116 213 -207 304 -134 134 -296 225 -457 255 -48 9 -99 19 -113 23 l-25 6 -1 180 c-4 482 101 850 325 1133 23 28 48 52 56 52 9 0 41 -21 73 -47z m445 -258 c121 -21 211 -69 283 -149 70 -78 90 -83 127 -27 30 45 95 100 153 129 85 43 160 56 329 56 150 1 165 -1 240 -27 92 -32 202 -102 245 -157 57 -72 74 -125 74 -235 1 -105 -7 -137 -54 -241 -108 -237 -386 -487 -711 -638 -277 -128 -471 -111 -796 72 -127 72 -290 199 -387 302 -87 92 -175 226 -211 321 -56 148 -41 313 37 411 35 44 135 118 193 143 128 54 314 70 478 40z m399 -57 l-42 -43 -42 43 -43 42 85 0 85 0 -43 -42z m-1150 -1119 c282 -72 520 -301 609 -589 20 -65 23 -96 24 -235 0 -124 -4 -176 -19 -233 -10 -40 -22 -75 -28 -78 -12 -7 -100 59 -206 155 -224 202 -392 478 -469 771 -16 61 -43 198 -43 218 0 17 40 15 132 -9z m2348 12 c0 -21 -33 -182 -52 -249 -87 -322 -304 -637 -583 -848 -82 -62 -85 -61 -110 36 -37 142 -30 342 17 495 79 261 313 488 568 554 80 21 160 27 160 12z"/><path d="M7375 9336 c-62 -20 -98 -41 -142 -86 -55 -54 -81 -107 -92 -184 -20 -143 43 -267 171 -337 58 -31 70 -34 148 -34 72 0 94 4 143 27 67 31 129 93 160 158 30 64 35 183 11 252 -21 57 -88 138 -143 172 -70 44 -177 57 -256 32z m197 -98 c57 -24 95 -66 120 -130 62 -163 -53 -331 -227 -333 -86 0 -148 33 -200 108 -33 49 -40 67 -43 122 -7 114 57 209 168 248 53 19 113 14 182 -15z"/><path d="M7308 9099 c-62 -36 60 -159 157 -159 98 0 220 125 156 160 -27 14 -24 15 -76 -30 -36 -31 -54 -40 -83 -40 -29 0 -46 8 -81 40 -48 44 -48 44 -73 29z"/><path d="M8550 9337 c-94 -21 -188 -101 -226 -194 -11 -24 -17 -70 -18 -123 -1 -76 2 -91 29 -145 36 -71 117 -141 195 -169 149 -54 334 31 402 183 56 124 23 281 -78 370 -87 76 -192 103 -304 78z m180 -94 c86 -35 143 -123 143 -223 0 -96 -43 -166 -138 -225 -48 -30 -158 -26 -221 9 -146 79 -170 282 -47 397 69 65 168 81 263 42z"/><path d="M8459 9076 c-10 -21 -7 -29 27 -66 88 -94 202 -95 287 -1 39 44 44 60 25 79 -20 20 -46 13 -87 -23 -65 -59 -121 -55 -174 12 -25 31 -64 30 -78 -1z"/><path d="M7981 8658 c58 -94 69 -108 78 -108 7 0 26 27 98 138 l34 52 -131 0 -130 0 51 -82z"/><path d="M12383 9849 c-28 -5 -94 -22 -146 -39 -56 -18 -116 -30 -148 -30 -147 0 -333 -97 -405 -211 -41 -65 -64 -151 -64 -239 0 -52 -6 -94 -16 -118 -9 -20 -25 -68 -37 -107 -20 -67 -20 -98 -24 -847 l-4 -778 -91 0 c-72 0 -101 -4 -134 -21 -51 -24 -105 -100 -122 -171 -38 -152 24 -342 124 -384 27 -11 241 -14 1235 -14 1174 0 1202 0 1233 19 145 90 166 376 37 514 -44 48 -72 57 -176 57 l-95 0 0 723 c0 784 -3 834 -56 976 -17 46 -24 84 -24 138 0 139 -38 231 -132 319 -96 89 -222 144 -334 144 -28 0 -83 11 -124 25 -150 51 -349 69 -497 44z m340 -85 c27 -6 27 -7 -18 -29 -56 -29 -145 -94 -145 -106 0 -19 -27 -8 -58 24 -17 18 -56 46 -87 62 -30 17 -55 33 -55 37 0 4 21 10 48 13 26 4 52 8 57 11 14 5 223 -4 258 -12z m-408 -97 c75 -23 144 -76 186 -144 29 -46 54 -41 100 21 69 91 165 137 311 150 198 18 391 -81 448 -231 72 -188 -27 -485 -233 -702 -119 -124 -306 -240 -447 -276 -85 -22 -240 -16 -324 14 -247 87 -508 335 -602 572 -89 227 -65 413 69 523 56 46 145 86 211 96 77 11 203 1 281 -23z m1130 -614 c14 -53 23 -387 11 -400 -6 -6 -38 -25 -72 -42 -210 -104 -395 -330 -471 -578 -24 -80 -27 -103 -27 -248 0 -138 3 -169 22 -225 12 -36 22 -68 22 -72 0 -5 -176 -8 -391 -8 l-391 0 6 23 c31 110 38 144 43 229 22 365 -179 709 -517 885 l-55 29 0 154 c1 175 11 270 28 270 7 0 23 -26 37 -58 85 -196 273 -397 485 -519 332 -191 681 -121 1000 201 103 104 245 319 245 371 0 25 17 17 25 -12z m-1675 -590 c72 -53 150 -134 197 -203 151 -225 191 -524 99 -745 l-15 -35 -215 0 -216 0 0 528 c0 291 3 531 6 535 9 9 70 -24 144 -80z m1691 74 c-1 -4 -1 -243 -1 -532 l0 -525 -219 0 -218 0 -16 43 c-34 92 -41 135 -41 257 1 154 18 229 84 367 54 114 48 104 125 191 90 102 119 126 215 180 52 30 72 36 71 19z m99 -1151 c0 -2 -10 -26 -22 -53 -31 -69 -31 -224 0 -303 12 -30 22 -56 22 -57 0 -2 -494 -3 -1099 -3 -1079 0 -1099 0 -1123 20 -44 34 -72 106 -71 185 0 91 18 151 53 187 l28 28 1106 0 c608 0 1106 -2 1106 -4z m203 -24 c61 -63 77 -214 33 -308 -41 -87 -94 -107 -140 -53 -43 50 -56 94 -56 183 0 164 86 258 163 178z"/><path d="M12090 9510 c-71 -9 -106 -28 -159 -85 -55 -60 -72 -102 -73 -184 -1 -105 53 -193 149 -242 39 -19 63 -24 123 -24 84 1 134 21 189 76 55 54 75 105 75 189 1 87 -22 146 -76 196 -54 50 -78 62 -158 78 -8 2 -40 0 -70 -4z m99 -90 c39 -11 86 -52 108 -94 24 -47 20 -128 -10 -179 -30 -51 -55 -69 -114 -84 -79 -20 -148 6 -200 73 -24 32 -28 46 -28 104 0 55 4 73 27 107 45 69 131 98 217 73z"/><path d="M12085 9328 c-60 -33 -74 -106 -27 -151 27 -26 45 -32 89 -29 28 2 73 47 73 72 0 17 -7 20 -50 20 l-50 0 0 50 c0 53 -3 56 -35 38z"/><path d="M12875 9491 c-54 -10 -97 -34 -141 -79 -46 -47 -60 -74 -72 -143 -25 -133 57 -264 191 -304 64 -19 90 -19 156 1 114 33 197 151 189 268 -11 171 -157 287 -323 257z m133 -95 c32 -17 74 -61 92 -95 20 -39 15 -125 -10 -168 -32 -58 -81 -87 -154 -91 -54 -3 -66 0 -109 27 -159 102 -85 340 106 341 26 0 60 -6 75 -14z"/><path d="M12856 9289 c-54 -64 -15 -159 65 -159 49 0 84 22 98 61 l10 29 -55 0 -54 0 0 50 c0 43 -3 50 -19 50 -11 0 -31 -14 -45 -31z"/><path d="M12527 9048 c-56 -43 -43 -198 19 -222 35 -14 74 49 74 119 0 85 -47 137 -93 103z"/><path d="M11718 7299 c-21 -12 -24 -49 -6 -67 15 -15 291 -17 319 -2 11 6 19 21 19 35 0 14 -8 29 -19 35 -25 13 -290 13 -313 -1z"/><path d="M12865 7273 c-47 -12 -61 -54 -26 -73 32 -17 177 -13 195 6 40 39 0 71 -89 72 -33 0 -69 -2 -80 -5z"/><path d="M12262 7128 c-18 -18 -14 -46 7 -58 11 -5 75 -10 143 -10 141 0 166 9 154 53 l-6 27 -143 0 c-98 0 -147 -4 -155 -12z"/><path d="M12520 5583 c-349 -20 -627 -170 -839 -454 -228 -305 -349 -804 -320 -1321 12 -217 30 -329 85 -538 113 -430 379 -771 749 -958 142 -72 200 -96 301 -125 208 -60 311 -78 539 -98 162 -14 644 -6 676 11 19 11 19 26 17 1278 l-3 1267 -28 90 c-68 216 -153 367 -291 512 -155 164 -322 255 -575 313 -58 14 -238 27 -311 23z m215 -99 c89 -7 167 -29 285 -79 78 -33 250 -140 250 -155 0 -4 -35 -10 -77 -13 -254 -18 -455 -204 -578 -530 -12 -32 -26 -58 -31 -58 -5 0 -14 17 -20 38 -18 60 -83 183 -129 243 -139 180 -300 270 -487 270 -93 0 -93 4 0 77 100 79 280 164 417 198 46 11 194 23 245 19 25 -2 81 -6 125 -10z m599 -339 c65 -17 86 -37 153 -145 51 -83 88 -169 121 -280 30 -103 42 -345 23 -455 -28 -158 -106 -337 -204 -463 -66 -87 -208 -214 -292 -261 -99 -57 -239 -110 -335 -127 -105 -19 -323 -18 -418 2 -432 89 -751 422 -826 862 -38 223 -1 448 110 663 55 107 78 131 146 153 211 68 424 -17 567 -227 86 -126 149 -302 166 -460 6 -59 4 -73 -16 -115 -33 -66 -32 -145 1 -192 13 -19 34 -43 45 -52 19 -17 21 -16 63 28 43 47 48 65 42 144 -1 19 -11 53 -22 75 -18 34 -20 51 -14 132 9 124 45 262 96 364 23 46 46 86 51 87 5 2 9 9 9 16 0 21 131 156 184 190 109 70 233 91 350 61z m-1860 -902 c2 -10 11 -47 20 -83 71 -295 284 -565 567 -719 254 -138 588 -170 871 -81 87 27 92 27 84 -12 -21 -105 -27 -225 -16 -312 34 -262 139 -447 400 -707 l157 -156 -91 -7 c-101 -7 -456 7 -581 24 -653 87 -1086 391 -1293 908 -75 187 -120 385 -142 627 -22 240 -5 618 24 518z m2176 -1132 c0 -491 -4 -872 -9 -875 -17 -11 -181 134 -280 248 -157 181 -247 351 -272 516 -12 80 -7 289 10 350 5 19 12 47 15 61 4 18 19 34 48 49 163 85 386 323 452 483 8 20 20 37 25 37 8 0 11 -268 11 -869z"/><path d="M11940 4801 c-152 -33 -275 -201 -257 -352 8 -63 45 -147 87 -192 110 -121 315 -140 440 -41 59 46 118 136 126 192 24 160 -48 304 -186 369 -50 24 -156 36 -210 24z m181 -101 c49 -25 109 -93 125 -143 18 -53 14 -140 -8 -181 -50 -95 -128 -141 -234 -140 -175 2 -288 193 -208 352 46 93 145 145 247 131 30 -4 65 -12 78 -19z"/><path d="M11980 4571 c-35 -10 -71 -67 -64 -100 20 -89 111 -118 170 -54 43 46 27 121 -33 152 -24 12 -36 12 -73 2z"/><path d="M13100 4795 c-242 -68 -321 -380 -139 -550 74 -69 127 -90 229 -90 72 0 93 4 141 28 145 70 218 232 174 382 -52 179 -228 279 -405 230z m186 -90 c46 -19 105 -75 125 -120 26 -56 25 -156 -1 -211 -44 -90 -119 -137 -220 -137 -74 0 -110 15 -170 69 -41 38 -80 121 -80 174 0 76 67 183 138 219 58 30 143 32 208 6z"/><path d="M13160 4573 c-79 -31 -90 -135 -19 -177 93 -55 195 73 119 149 -26 25 -73 39 -100 28z"/><path d="M9165 5441 c-38 -20 -128 -68 -200 -105 -71 -38 -196 -104 -277 -147 -81 -44 -154 -79 -163 -79 -8 0 -41 13 -73 29 -101 50 -221 81 -345 88 -167 9 -302 -19 -450 -94 l-68 -34 -54 25 c-29 14 -104 53 -167 87 -62 34 -167 90 -233 124 -66 34 -151 79 -188 99 -107 59 -139 39 -101 -65 63 -172 178 -512 187 -551 8 -34 8 -53 0 -70 -39 -79 -50 -234 -24 -339 13 -54 12 -60 -18 -158 -64 -206 -91 -390 -91 -623 0 -557 214 -1072 560 -1349 401 -321 905 -296 1270 63 147 143 217 245 313 448 61 130 107 269 144 439 20 96 25 154 30 336 4 142 1 252 -6 310 -17 128 -58 312 -91 409 -26 74 -28 88 -18 122 7 22 12 86 12 144 1 85 -4 117 -22 170 l-24 65 87 250 c135 387 137 395 131 421 -9 33 -36 30 -121 -15z m-1 -123 c-4 -13 -33 -97 -65 -188 -33 -91 -59 -169 -59 -173 0 -4 -7 -24 -15 -44 l-16 -37 -52 51 c-66 65 -133 107 -213 133 -35 12 -62 26 -59 30 3 5 54 34 113 64 59 30 161 84 227 120 135 72 150 77 139 44z m-2032 -74 c269 -143 298 -159 298 -165 0 -4 -17 -10 -37 -14 -59 -11 -171 -74 -233 -132 l-57 -52 -16 47 c-8 26 -42 124 -75 219 -52 148 -61 183 -46 183 2 0 77 -39 166 -86z m1025 -104 c85 -11 234 -57 240 -75 2 -6 -18 -20 -44 -32 -126 -58 -242 -190 -287 -327 -5 -15 -17 1 -51 71 -36 74 -57 102 -116 157 -39 36 -97 78 -130 93 -32 16 -58 31 -58 35 -2 21 167 72 264 81 80 7 102 7 182 -3z m-548 -150 c86 -15 174 -61 242 -129 92 -93 129 -185 129 -327 0 -49 -7 -100 -17 -130 -68 -204 -287 -338 -499 -305 -219 34 -384 222 -384 435 0 133 40 232 131 326 62 63 127 102 212 125 64 17 103 18 186 5z m1058 1 c119 -23 259 -124 310 -225 72 -141 72 -300 1 -439 -30 -59 -133 -158 -199 -189 -174 -84 -385 -47 -518 91 -119 124 -157 270 -112 440 58 222 289 365 518 322z m-597 -615 c0 -15 45 -106 73 -147 17 -25 17 -26 -29 -85 -25 -32 -53 -59 -62 -59 -8 0 -35 28 -58 61 l-43 61 25 34 c28 38 64 114 64 135 0 8 7 14 15 14 8 0 15 -6 15 -14z m-923 -205 c102 -103 233 -161 366 -161 l65 0 54 -62 c131 -153 208 -309 252 -508 42 -189 24 -445 -47 -659 -44 -135 -227 -472 -260 -479 -25 -5 -143 100 -226 203 -152 187 -241 372 -310 642 -46 178 -55 260 -55 483 0 223 10 310 55 485 11 44 23 90 26 103 3 12 7 22 9 22 2 0 34 -31 71 -69z m1914 13 c53 -158 85 -421 76 -634 -15 -363 -109 -670 -290 -942 -62 -94 -253 -298 -279 -298 -17 0 -102 129 -156 235 -119 239 -172 439 -172 656 0 271 90 522 260 728 l65 78 75 7 c129 11 244 68 331 165 30 33 59 59 64 57 6 -1 17 -25 26 -52z m-1103 -127 c70 -97 84 -110 106 -101 9 3 42 40 73 81 78 102 79 103 88 103 4 0 21 -12 39 -27 36 -30 143 -83 169 -83 23 0 22 -26 -3 -52 -33 -36 -110 -155 -146 -227 -49 -99 -91 -226 -110 -333 -25 -142 -15 -400 20 -533 46 -177 131 -372 230 -529 31 -48 56 -92 56 -97 0 -13 -86 -54 -180 -84 -113 -37 -278 -45 -401 -21 -79 16 -239 80 -239 97 0 4 28 51 62 105 110 175 205 400 243 574 21 98 30 332 17 440 -25 198 -128 436 -259 598 -19 23 -33 48 -30 55 2 7 26 20 53 30 27 10 69 33 94 52 25 19 48 35 51 35 4 0 34 -37 67 -83z"/><path d="M7413 4585 c-33 -33 -35 -39 -31 -84 8 -83 84 -129 161 -98 112 47 73 217 -51 217 -37 0 -50 -6 -79 -35z"/><path d="M8496 4629 c-43 -37 -55 -83 -32 -127 49 -95 169 -96 211 -1 23 49 13 90 -31 129 -48 42 -100 42 -148 -1z"/><path d="M7192 3808 c-8 -8 -12 -50 -12 -125 0 -101 2 -113 19 -123 25 -13 27 -13 45 6 13 12 16 39 16 123 0 109 -7 131 -40 131 -9 0 -21 -5 -28 -12z"/><path d="M7467 3622 c-24 -26 -25 -213 -1 -236 20 -21 44 -20 60 2 20 26 19 201 -2 230 -18 27 -36 28 -57 4z"/><path d="M7292 3238 c-8 -8 -12 -51 -12 -125 0 -123 4 -132 55 -119 25 6 25 7 25 119 0 115 -6 137 -40 137 -9 0 -21 -5 -28 -12z"/><path d="M7564 2987 c-2 -7 -3 -62 -2 -122 3 -90 6 -110 21 -119 12 -8 22 -8 35 0 14 9 18 29 20 110 4 129 0 144 -39 144 -16 0 -32 -6 -35 -13z"/><path d="M8892 3808 c-13 -13 -17 -215 -4 -234 15 -22 42 -24 62 -4 16 16 18 32 17 122 -1 57 -6 109 -10 116 -10 15 -49 16 -65 0z"/><path d="M8620 3620 c-6 -12 -9 -64 -8 -126 3 -89 6 -109 21 -118 12 -8 22 -8 35 0 14 9 17 29 20 124 3 117 -4 140 -39 140 -10 0 -23 -9 -29 -20z"/><path d="M8790 3224 c-6 -14 -10 -61 -10 -104 0 -97 11 -130 43 -130 41 0 47 17 47 130 0 113 -6 130 -47 130 -16 0 -27 -8 -33 -26z"/><path d="M8529 3002 c-23 -4 -29 -32 -29 -144 0 -89 2 -98 21 -109 16 -8 27 -8 45 2 23 12 24 18 24 108 0 135 -9 155 -61 143z"/><path d="M2348 5118 c-200 -232 -308 -482 -365 -848 -26 -165 -25 -592 1 -735 26 -146 91 -356 145 -471 94 -199 267 -422 437 -565 168 -141 415 -287 647 -383 l88 -36 85 35 c441 183 778 443 977 754 58 91 146 271 177 361 67 196 90 341 97 597 15 575 -112 991 -399 1308 -54 59 -55 58 -161 -29 -38 -31 -71 -56 -73 -56 -3 0 -37 5 -75 11 -177 27 -414 -48 -558 -177 l-51 -46 -41 36 c-149 136 -403 214 -604 187 -79 -10 -94 -4 -189 78 -26 23 -56 41 -66 41 -10 0 -42 -28 -72 -62z m1933 -167 c16 -24 27 -46 24 -49 -3 -3 -22 8 -43 25 -21 17 -62 43 -92 58 -30 15 -57 29 -60 32 -2 2 11 17 30 34 l35 30 38 -43 c21 -24 51 -63 68 -87z m-1816 95 l29 -25 -34 -18 c-18 -10 -62 -37 -96 -60 -35 -22 -64 -37 -64 -31 0 22 108 157 126 158 6 0 24 -11 39 -24z m440 -80 c143 -28 264 -93 349 -187 59 -65 77 -64 140 8 64 72 146 125 249 159 72 25 97 28 207 28 116 0 131 -2 206 -31 225 -86 375 -273 403 -505 9 -80 0 -201 -21 -268 -45 -148 -176 -298 -318 -369 -105 -51 -175 -64 -310 -59 -177 8 -316 71 -442 200 -37 37 -71 68 -75 68 -10 0 -21 -11 -93 -86 -60 -62 -160 -127 -240 -154 -90 -31 -263 -39 -358 -15 -151 36 -303 152 -382 291 -59 104 -79 182 -79 319 -1 96 3 121 28 192 37 106 70 161 139 232 87 88 201 154 317 180 61 14 202 13 280 -3z m1652 -998 c5 -167 3 -205 -8 -214 -8 -6 -45 -15 -84 -22 -110 -18 -193 -47 -292 -104 -250 -144 -427 -391 -474 -662 -7 -43 -10 -123 -7 -210 5 -127 9 -151 40 -245 l35 -103 -61 -40 c-34 -21 -126 -71 -206 -110 -203 -100 -195 -100 -442 25 -106 54 -204 107 -217 118 l-24 20 26 87 c42 140 50 201 44 335 -6 138 -28 235 -79 353 -83 191 -251 370 -437 464 -59 29 -192 69 -261 77 -30 3 -58 11 -62 17 -16 23 -1 414 15 419 5 1 21 -30 36 -69 61 -157 192 -304 332 -373 124 -61 192 -76 334 -75 106 1 131 5 213 33 51 17 97 31 101 31 5 0 48 -54 97 -120 48 -65 94 -122 102 -125 25 -9 49 14 102 97 43 68 94 147 107 167 1 2 36 -10 76 -28 81 -36 201 -60 292 -60 299 -1 586 220 670 518 17 57 27 -9 32 -201z m-1228 -111 c20 -18 47 -40 60 -49 15 -11 21 -23 18 -33 -14 -36 -110 -175 -120 -175 -16 1 -127 153 -127 173 0 9 8 18 18 21 10 3 38 26 62 51 24 25 46 45 48 45 3 0 21 -15 41 -33z m-1114 -229 c126 -38 229 -99 327 -195 154 -149 242 -339 263 -570 12 -126 -35 -383 -70 -383 -17 0 -181 138 -251 211 -142 148 -276 372 -347 579 -39 114 -77 288 -77 352 l0 41 43 -7 c23 -4 74 -16 112 -28z m2328 25 c3 -5 -1 -48 -9 -98 -56 -351 -224 -678 -466 -911 -94 -90 -217 -186 -228 -179 -15 9 -49 129 -61 214 -13 96 -7 249 15 328 48 176 112 283 250 418 72 70 113 101 187 140 118 62 297 112 312 88z"/><path d="M2638 4587 c-54 -17 -127 -83 -150 -134 -52 -117 2 -257 120 -311 74 -34 165 -28 225 15 56 39 98 101 104 154 l5 44 -97 -3 c-154 -5 -145 -13 -145 128 0 131 2 127 -62 107z"/><path d="M3789 4552 c-103 -53 -148 -162 -115 -276 20 -69 55 -110 120 -143 144 -73 319 16 338 172 l3 30 -120 5 -120 5 3 68 c2 37 1 90 -3 117 -6 43 -10 50 -30 50 -12 0 -47 -13 -76 -28z"/><path d="M2971 3138 c13 -18 36 -50 52 -70 l29 -37 46 57 c25 31 50 63 55 70 7 9 -14 12 -97 12 l-107 0 22 -32z"/><path d="M3471 3103 c29 -38 53 -69 53 -69 1 -1 25 29 54 67 l53 69 -106 0 -105 0 51 -67z"/><path d="M3200 2876 c0 -8 3 -16 8 -18 4 -1 25 -27 46 -56 21 -29 42 -52 46 -50 11 4 100 120 100 130 0 4 -45 8 -100 8 -80 0 -100 -3 -100 -14z"/><path d="M2307 3412 c-13 -14 -17 -38 -17 -98 0 -85 8 -104 47 -104 32 0 43 28 43 114 0 66 -3 77 -22 90 -28 20 -31 20 -51 -2z"/><path d="M2516 3078 c-19 -26 -22 -148 -6 -179 12 -21 50 -25 68 -7 7 7 12 43 12 93 0 67 -3 85 -18 98 -25 23 -38 21 -56 -5z"/><path d="M4226 3414 c-12 -11 -16 -36 -16 -98 0 -91 10 -110 52 -104 22 3 23 7 26 98 2 80 0 97 -15 107 -22 17 -28 16 -47 -3z"/><path d="M4012 3088 c-8 -8 -12 -46 -12 -104 0 -84 2 -93 20 -99 11 -3 29 -3 40 0 18 6 20 15 20 100 0 83 -2 96 -19 105 -25 13 -34 13 -49 -2z"/></g></svg>
